<svg width="40" height="40" viewBox="0 0 40 40" fill="none" xmlns="http://www.w3.org/2000/svg">
<path d="M9.24444 0.0889282C12.6777 0.0889282 15.4809 2.79257 15.6373 6.18742L15.6444 6.48893V13.1705L23.3316 7.4788C23.798 7.13319 24.4224 7.11044 24.9088 7.402L25.0667 7.51151L32.7111 13.6285V8.62226H35.5556V15.904L39.2889 18.8893L37.5111 21.1108L35.5556 19.5449L35.5541 25.6889H38.4C39.1296 25.6889 39.7312 26.2379 39.8123 26.9447L39.8222 27.1112V38.4889C39.8222 39.2185 39.2732 39.8201 38.5664 39.9012L38.4 39.9112H0V37.0667H10.7307L13.2196 34.2223H0V31.3778H15.6444V31.4518L18.1973 28.5334H0V25.6889H2.84444V6.48893C2.84444 2.95471 5.71022 0.0889282 9.24444 0.0889282ZM26.7307 28.5334H21.9776L14.5109 37.0667H19.264L26.7307 28.5334ZM36.9778 30.8943L31.5776 37.0667H36.9778V30.8943ZM35.264 28.5334H30.5109L23.0443 37.0667H27.7973L35.264 28.5334ZM32.7111 17.2694L24.1436 10.4157L15.6444 16.7104V25.6889H19.9097L19.9111 20C19.9111 19.2704 20.4601 18.6688 21.1669 18.5878L21.3333 18.5778H27.0222C27.7518 18.5778 28.3534 19.1268 28.4345 19.8336L28.4444 20L28.443 25.6889H32.7097L32.7111 17.2694ZM9.24444 2.93337C7.36 2.93337 5.81689 4.40111 5.696 6.25568L5.68889 6.48893V25.6889H12.8V6.48893C12.8 4.52484 11.2085 2.93337 9.24444 2.93337ZM25.6 21.4223H22.7556V25.6889H25.6V21.4223Z" fill="#717171"/>
</svg>
