<svg width="25" height="25" viewBox="0 0 25 25" fill="none" xmlns="http://www.w3.org/2000/svg">
<path d="M23.2143 0C24.1554 0 24.9268 0.728571 24.9955 1.65268L25 1.78571V23.2143C25 24.1554 24.2714 24.9268 23.3473 24.9946L23.2143 25H1.78571C0.844643 25 0.0732141 24.2714 0.00446439 23.3473L0 23.2143V1.78571C0 0.844643 0.728571 0.0732141 1.65268 0.00446439L1.78571 0H23.2143ZM12.5 4.38839L9.74464 7.14286H1.78571V23.2143H8.92857V18.75C8.92857 17.8089 9.65714 17.0375 10.5813 16.9688L10.7143 16.9643H14.2857C15.2268 16.9643 15.9982 17.6929 16.067 18.617L16.0714 18.75V23.2143H23.2143V7.14286H15.2554L12.5 4.38839ZM14.2857 18.75H10.7143V23.2143H14.2857V18.75ZM19.6429 16.9643C20.1357 16.9643 20.5357 17.3643 20.5357 17.8571C20.5357 18.35 20.1357 18.75 19.6429 18.75C19.15 18.75 18.75 18.35 18.75 17.8571C18.75 17.3643 19.15 16.9643 19.6429 16.9643ZM5.35714 16.9643C5.85 16.9643 6.25 17.3643 6.25 17.8571C6.25 18.35 5.85 18.75 5.35714 18.75C4.86429 18.75 4.46429 18.35 4.46429 17.8571C4.46429 17.3643 4.86429 16.9643 5.35714 16.9643ZM19.6429 13.3929C20.1357 13.3929 20.5357 13.7929 20.5357 14.2857C20.5357 14.7786 20.1357 15.1786 19.6429 15.1786C19.15 15.1786 18.75 14.7786 18.75 14.2857C18.75 13.7929 19.15 13.3929 19.6429 13.3929ZM5.35714 13.3929C5.85 13.3929 6.25 13.7929 6.25 14.2857C6.25 14.7786 5.85 15.1786 5.35714 15.1786C4.86429 15.1786 4.46429 14.7786 4.46429 14.2857C4.46429 13.7929 4.86429 13.3929 5.35714 13.3929ZM19.6429 9.82143C20.1357 9.82143 20.5357 10.2214 20.5357 10.7143C20.5357 11.2071 20.1357 11.6071 19.6429 11.6071C19.15 11.6071 18.75 11.2071 18.75 10.7143C18.75 10.2214 19.15 9.82143 19.6429 9.82143ZM12.5 9.82143C12.9929 9.82143 13.3929 10.2214 13.3929 10.7143C13.3929 11.2071 12.9929 11.6071 12.5 11.6071C12.0071 11.6071 11.6071 11.2071 11.6071 10.7143C11.6071 10.2214 12.0071 9.82143 12.5 9.82143ZM5.35714 9.82143C5.85 9.82143 6.25 10.2214 6.25 10.7143C6.25 11.2071 5.85 11.6071 5.35714 11.6071C4.86429 11.6071 4.46429 11.2071 4.46429 10.7143C4.46429 10.2214 4.86429 9.82143 5.35714 9.82143ZM23.2143 5.35714V1.78571H1.78571V5.35714H9.00357L11.2375 3.125C11.8982 2.46429 12.9473 2.42946 13.6491 3.02054L13.7625 3.125L15.9955 5.35714H23.2143Z" fill="#717171"/>
</svg>
