<svg width="40" height="41" viewBox="0 0 40 41" fill="none" xmlns="http://www.w3.org/2000/svg">
<path d="M37.1429 7.63376H25.7143V3.34805C25.7129 2.59091 25.4114 1.86376 24.8757 1.32805C24.3414 0.793763 23.6143 0.492335 22.8571 0.490906H2.85714C2.1 0.492335 1.37286 0.792335 0.837143 1.32805C0.301429 1.86376 0.00142915 2.59091 0 3.34805V37.6338C0.00142915 38.3909 0.302857 39.118 0.837143 39.6523C1.37286 40.188 2.1 40.4895 2.85714 40.4909H37.1429C37.9 40.4895 38.6257 40.188 39.1614 39.6523C39.6971 39.1166 39.9986 38.3909 40 37.6338V10.4909C39.9986 9.73376 39.6971 9.00662 39.1614 8.47091C38.6271 7.93662 37.9 7.63519 37.1429 7.63376ZM15.7143 37.6338H10V30.4909H15.7143V37.6338ZM22.8571 37.6338H18.5714V30.4909C18.57 29.7338 18.2686 29.0066 17.7329 28.4723C17.1986 27.9366 16.4714 27.6352 15.7143 27.6338H10C9.24286 27.6352 8.51571 27.9366 7.98 28.4723C7.44571 29.0066 7.14429 29.7338 7.14286 30.4909V37.6338H2.85714L2.85571 3.34805H22.8571V37.6338ZM37.1429 37.6338H25.7143V10.4909H37.1429V37.6338ZM32.8571 20.4909C32.8571 20.7738 32.7729 21.0495 32.6157 21.2852C32.46 21.5195 32.2357 21.7023 31.9757 21.8109C31.7143 21.9195 31.4271 21.9466 31.15 21.8923C30.8729 21.8366 30.6186 21.7009 30.4186 21.5009C30.2186 21.3009 30.0829 21.0466 30.0271 20.7695C29.9729 20.4923 30 20.2052 30.1086 19.9438C30.2171 19.6838 30.4 19.4595 30.6343 19.3038C30.87 19.1466 31.1457 19.0623 31.4286 19.0623C31.8071 19.0623 32.1714 19.2123 32.4386 19.4809C32.7071 19.748 32.8571 20.1123 32.8571 20.4909ZM30 14.7766C30 14.4938 30.0843 14.2181 30.2414 13.9823C30.3971 13.748 30.6214 13.5652 30.8814 13.4566C31.1429 13.348 31.43 13.3209 31.7071 13.3752C31.9843 13.4309 32.2386 13.5666 32.4386 13.7666C32.6386 13.9666 32.7743 14.2209 32.83 14.498C32.8843 14.7752 32.8571 15.0623 32.7486 15.3238C32.64 15.5838 32.4571 15.808 32.2229 15.9638C31.9871 16.1209 31.7114 16.2052 31.4286 16.2052C31.05 16.2052 30.6857 16.0552 30.4186 15.7866C30.15 15.5195 30 15.1552 30 14.7766ZM18.5714 20.4909C18.5714 20.7738 18.4871 21.0495 18.33 21.2852C18.1743 21.5195 17.95 21.7023 17.69 21.8109C17.4286 21.9195 17.1414 21.9466 16.8643 21.8923C16.5871 21.8366 16.3329 21.7009 16.1329 21.5009C15.9329 21.3009 15.7971 21.0466 15.7414 20.7695C15.6871 20.4923 15.7143 20.2052 15.8229 19.9438C15.9314 19.6838 16.1143 19.4595 16.3486 19.3038C16.5843 19.1466 16.86 19.0623 17.1429 19.0623C17.5214 19.0623 17.8857 19.2123 18.1529 19.4809C18.4214 19.748 18.5714 20.1123 18.5714 20.4909ZM18.5714 14.7766C18.5714 15.0595 18.4871 15.3352 18.33 15.5709C18.1743 15.8052 17.95 15.988 17.69 16.0966C17.4286 16.2052 17.1414 16.2323 16.8643 16.178C16.5871 16.1223 16.3329 15.9866 16.1329 15.7866C15.9329 15.5866 15.7971 15.3323 15.7414 15.0552C15.6871 14.778 15.7143 14.4909 15.8229 14.2295C15.9314 13.9695 16.1143 13.7452 16.3486 13.5895C16.5843 13.4323 16.86 13.348 17.1429 13.348C17.5214 13.348 17.8857 13.498 18.1529 13.7666C18.4214 14.0338 18.5714 14.398 18.5714 14.7766ZM18.5714 9.06233C18.5714 9.34519 18.4871 9.62091 18.33 9.85662C18.1743 10.0909 17.95 10.2738 17.69 10.3823C17.4286 10.4909 17.1414 10.518 16.8643 10.4638C16.5871 10.408 16.3329 10.2723 16.1329 10.0723C15.9329 9.87233 15.7971 9.61805 15.7414 9.34091C15.6871 9.06376 15.7143 8.77662 15.8229 8.51519C15.9314 8.25519 16.1143 8.03091 16.3486 7.87519C16.5843 7.71805 16.86 7.63376 17.1429 7.63376C17.5214 7.63376 17.8857 7.78376 18.1529 8.05233C18.4214 8.31948 18.5714 8.68376 18.5714 9.06233ZM10 20.4909C10 20.7738 9.91571 21.0495 9.75857 21.2852C9.60286 21.5195 9.37857 21.7023 9.11857 21.8109C8.85714 21.9195 8.57 21.9466 8.29286 21.8923C8.01571 21.8366 7.76143 21.7009 7.56143 21.5009C7.36143 21.3009 7.22571 21.0466 7.17 20.7695C7.11571 20.4923 7.14286 20.2052 7.25143 19.9438C7.36 19.6838 7.54286 19.4595 7.77714 19.3038C8.01286 19.1466 8.28857 19.0623 8.57143 19.0623C8.95 19.0623 9.31429 19.2123 9.58143 19.4809C9.85 19.748 10 20.1123 10 20.4909ZM10 14.7766C10 15.0595 9.91571 15.3352 9.75857 15.5709C9.60286 15.8052 9.37857 15.988 9.11857 16.0966C8.85714 16.2052 8.57 16.2323 8.29286 16.178C8.01571 16.1223 7.76143 15.9866 7.56143 15.7866C7.36143 15.5866 7.22571 15.3323 7.17 15.0552C7.11571 14.778 7.14286 14.4909 7.25143 14.2295C7.36 13.9695 7.54286 13.7452 7.77714 13.5895C8.01286 13.4323 8.28857 13.348 8.57143 13.348C8.95 13.348 9.31429 13.498 9.58143 13.7666C9.85 14.0338 10 14.398 10 14.7766ZM10 9.06233C10 9.34519 9.91571 9.62091 9.75857 9.85662C9.60286 10.0909 9.37857 10.2738 9.11857 10.3823C8.85714 10.4909 8.57 10.518 8.29286 10.4638C8.01571 10.408 7.76143 10.2723 7.56143 10.0723C7.36143 9.87233 7.22571 9.61805 7.17 9.34091C7.11571 9.06376 7.14286 8.77662 7.25143 8.51519C7.36 8.25519 7.54286 8.03091 7.77714 7.87519C8.01286 7.71805 8.28857 7.63376 8.57143 7.63376C8.95 7.63376 9.31429 7.78376 9.58143 8.05233C9.85 8.31948 10 8.68376 10 9.06233Z" fill="#717171"/>
</svg>
