<svg width="41" height="40" viewBox="0 0 41 40" fill="none" xmlns="http://www.w3.org/2000/svg">
<path d="M37.3555 0.0889282C38.8545 0.0889282 40.0833 1.24946 40.1928 2.72146L40.1999 2.93337V37.0667C40.1999 38.5657 39.0394 39.7945 37.5674 39.9026L37.3555 39.9112H3.22213C1.72311 39.9112 0.494307 38.7506 0.384797 37.2786L0.377686 37.0667V2.93337C0.377686 1.43435 1.53822 0.20555 3.01022 0.0960395L3.22213 0.0889282H37.3555ZM20.2888 7.07915L15.8998 11.4667H3.22213V37.0667H14.5999V29.9556C14.5999 28.4566 15.7604 27.2278 17.2324 27.1183L17.4444 27.1112H23.1332C24.6323 27.1112 25.8611 28.2717 25.9706 29.7437L25.9777 29.9556V37.0667H37.3555V11.4667H24.6778L20.2888 7.07915ZM23.1332 29.9556H17.4444V37.0667H23.1332V29.9556ZM31.6666 27.1112C32.4516 27.1112 33.0888 27.7483 33.0888 28.5334C33.0888 29.3184 32.4516 29.9556 31.6666 29.9556C30.8815 29.9556 30.2444 29.3184 30.2444 28.5334C30.2444 27.7483 30.8815 27.1112 31.6666 27.1112ZM8.91102 27.1112C9.69609 27.1112 10.3332 27.7483 10.3332 28.5334C10.3332 29.3184 9.69609 29.9556 8.91102 29.9556C8.12595 29.9556 7.4888 29.3184 7.4888 28.5334C7.4888 27.7483 8.12595 27.1112 8.91102 27.1112ZM31.6666 21.4223C32.4516 21.4223 33.0888 22.0594 33.0888 22.8445C33.0888 23.6296 32.4516 24.2667 31.6666 24.2667C30.8815 24.2667 30.2444 23.6296 30.2444 22.8445C30.2444 22.0594 30.8815 21.4223 31.6666 21.4223ZM8.91102 21.4223C9.69609 21.4223 10.3332 22.0594 10.3332 22.8445C10.3332 23.6296 9.69609 24.2667 8.91102 24.2667C8.12595 24.2667 7.4888 23.6296 7.4888 22.8445C7.4888 22.0594 8.12595 21.4223 8.91102 21.4223ZM31.6666 15.7334C32.4516 15.7334 33.0888 16.3705 33.0888 17.1556C33.0888 17.9407 32.4516 18.5778 31.6666 18.5778C30.8815 18.5778 30.2444 17.9407 30.2444 17.1556C30.2444 16.3705 30.8815 15.7334 31.6666 15.7334ZM20.2888 15.7334C21.0739 15.7334 21.711 16.3705 21.711 17.1556C21.711 17.9407 21.0739 18.5778 20.2888 18.5778C19.5037 18.5778 18.8666 17.9407 18.8666 17.1556C18.8666 16.3705 19.5037 15.7334 20.2888 15.7334ZM8.91102 15.7334C9.69609 15.7334 10.3332 16.3705 10.3332 17.1556C10.3332 17.9407 9.69609 18.5778 8.91102 18.5778C8.12595 18.5778 7.4888 17.9407 7.4888 17.1556C7.4888 16.3705 8.12595 15.7334 8.91102 15.7334ZM37.3555 8.62226V2.93337H3.22213V8.62226H14.7194L18.2778 5.06671C19.3302 4.01426 21.0013 3.95879 22.1192 4.90031L22.2998 5.06671L25.8568 8.62226H37.3555Z" fill="#717171"/>
</svg>
